<svg width="24" height="24" viewBox="0 0 24 24" fill="none" xmlns="http://www.w3.org/2000/svg">
<path d="M19.6556 6.69356C17.3274 4.95154 15.0969 5.00034 15.0969 5.00034L14.8689 5.26074C17.6368 6.09115 18.923 7.31216 18.923 7.31216C14.9631 5.13194 9.91907 5.14754 5.80023 7.31216C5.80023 7.31216 7.13524 6.02595 10.0659 5.19554L9.90307 5.00014C9.90307 5.00014 7.68885 4.95134 5.34442 6.69336C5.34442 6.69336 3 10.9102 3 16.1039C3 16.1039 4.36761 18.4483 7.96585 18.5623C7.96585 18.5623 8.56826 17.8459 9.05666 17.2273C6.98884 16.6087 6.20743 15.3224 6.20743 15.3224C7.50645 16.1353 8.82006 16.6441 10.4569 16.9669C13.1201 17.5151 16.4327 16.9515 18.9068 15.3224C18.9068 15.3224 18.0928 16.6413 15.9599 17.2437C16.4483 17.8461 17.0345 18.5461 17.0345 18.5461C20.6324 18.4323 22 16.0879 22 16.1041C22 10.9104 19.6556 6.69356 19.6556 6.69356ZM9.46347 14.59C8.55166 14.59 7.80285 13.7922 7.80285 12.799C7.86945 10.4206 11.0743 10.428 11.1243 12.799C11.1241 13.7922 10.3915 14.59 9.46347 14.59ZM15.4061 14.59C14.4943 14.59 13.7455 13.7922 13.7455 12.799C13.8187 10.4252 16.9835 10.4242 17.0669 12.799C17.0667 13.7922 16.3341 14.59 15.4061 14.59Z" fill="#3d3d3d"/>
</svg>
