<svg width="24" height="24" viewBox="0 0 24 24" fill="none" xmlns="http://www.w3.org/2000/svg">
<g clip-path="url(#clip0_131_9198)">
<path d="M20.9991 6.73735C20.325 7.03555 19.6101 7.23139 18.878 7.31839C19.6496 6.85694 20.2271 6.13071 20.5028 5.27502C19.7787 5.70595 18.9849 6.00795 18.1575 6.17132C17.6017 5.57665 16.865 5.18227 16.062 5.04948C15.2589 4.91669 14.4345 5.05293 13.7169 5.43702C12.9992 5.82111 12.4286 6.43153 12.0937 7.17339C11.7588 7.91524 11.6783 8.74697 11.8649 9.53925C10.3965 9.46565 8.95997 9.08406 7.6486 8.41925C6.33724 7.75444 5.18035 6.82128 4.25304 5.68034C3.9248 6.24412 3.75232 6.88502 3.75324 7.53739C3.75324 8.8178 4.40493 9.94898 5.3957 10.6113C4.80937 10.5928 4.23594 10.4345 3.72321 10.1494V10.1954C3.72339 11.0481 4.01848 11.8746 4.55844 12.5346C5.0984 13.1946 5.85001 13.6476 6.68583 13.8167C6.14154 13.9642 5.57082 13.986 5.01688 13.8803C5.25253 14.6143 5.71184 15.2563 6.33049 15.7163C6.94914 16.1762 7.69615 16.4312 8.46693 16.4455C7.70088 17.0472 6.82374 17.4919 5.88569 17.7544C4.94763 18.0168 3.96705 18.0918 3 17.975C4.68812 19.0606 6.65324 19.637 8.66032 19.6351C15.4536 19.6351 19.1686 14.0075 19.1686 9.12687C19.1686 8.96792 19.1641 8.80721 19.1571 8.65002C19.8802 8.12741 20.5043 7.48001 21 6.73823L20.9991 6.73735Z" fill="#3d3d3d"/>
</g>
<defs>
<clipPath id="clip0_131_9198">
<rect width="24" height="24" fill="white"/>
</clipPath>
</defs>
</svg>
