<svg width="24" height="24" viewBox="0 0 24 24" fill="none" xmlns="http://www.w3.org/2000/svg">
    <g clip-path="url(#clip0_131_9220)">
        <path
            d="M21.582 7.65622C21.4688 7.25146 21.2482 6.88501 20.9437 6.59582C20.6306 6.29774 20.2468 6.08452 19.8287 5.97628C18.2637 5.56298 11.9937 5.56298 11.9937 5.56298C9.37979 5.53318 6.76654 5.66424 4.16868 5.95541C3.75051 6.07165 3.36749 6.28963 3.05368 6.58998C2.74535 6.88722 2.52202 7.25377 2.40535 7.65538C2.12509 9.16811 1.98893 10.7041 1.99868 12.2426C1.98868 13.7798 2.12452 15.3153 2.40535 16.8299C2.51952 17.2298 2.74202 17.5947 3.05118 17.8895C3.36035 18.1842 3.74535 18.3971 4.16868 18.5098C5.75452 18.9223 11.9937 18.9223 11.9937 18.9223C14.6109 18.9521 17.2275 18.8211 19.8287 18.5299C20.2468 18.4216 20.6306 18.2084 20.9437 17.9103C21.2481 17.6212 21.4684 17.2547 21.5812 16.8499C21.8688 15.3378 22.0086 13.8012 21.9987 12.2618C22.0203 10.716 21.8807 9.17297 21.582 7.65622ZM10.0003 15.1015V9.38458L15.217 12.2435L10.0003 15.1015Z"
            fill="#3d3d3d" />
    </g>
    <defs>
        <clipPath id="clip0_131_9220">
            <rect width="20" height="20.039" fill="white" transform="translate(2 1.98047)" />
        </clipPath>
    </defs>
</svg>